# xmcd
#
# Track frame offsets:
#	150
#	14183
#	25701
#	37892
#	50582
#	64616
#	78630
#	92541
#	105842
#	118863
#	133158
#	145865
#	158216
#	170789
#	184111
#	197266
#	211097
#	224838
#	239272
#	251719
#
# Disc length: 3554 seconds
#
# Revision: 1
# Processed by: cddbd v1.5.2PL0 Copyright (c) Steve Scherf et al.
# Submitted via: audiograbber 1.83.01
#
DISCID=1d0de014
DTITLE=Ma Rainey - Ma Rainey - Mother of the Blues - CD 1
DYEAR=1900
DGENRE=Blues
TTITLE0=Bad Luck Blues
TTITLE1=Bo-Weavil Blues (take 1)
TTITLE2=Bo-Weavil Blues (take 2)
TTITLE3=Barrel House Blues
TTITLE4=Those All Night Long Blues (take 1)
TTITLE5=Those All Night Long Blues (take 2)
TTITLE6=Moonshine Blues
TTITLE7=Last Minute Blues
TTITLE8=Southern Blues
TTITLE9=Walking Blues
TTITLE10=Lost Wandering Blues
TTITLE11=Dream Blues
TTITLE12=Honey, Where You Been So Long
TTITLE13=Ya-Da-Do (take 1)
TTITLE14=Ya-Da-Do (take 2)
TTITLE15=Those Dogs of Mine
TTITLE16=Lucky Rock Blues
TTITLE17=South Bound Blues
TTITLE18=Lawd, Send Me a Man Blues
TTITLE19=Ma Rainey's Mystery Record
EXTD=CD 1/5 - JSP7793
EXTT0=
EXTT1=
EXTT2=
EXTT3=
EXTT4=
EXTT5=
EXTT6=
EXTT7=
EXTT8=
EXTT9=
EXTT10=
EXTT11=
EXTT12=
EXTT13=
EXTT14=
EXTT15=
EXTT16=
EXTT17=
EXTT18=
EXTT19=
PLAYORDER=
